<svg width="56" height="56" viewBox="0 0 56 56" fill="none" xmlns="http://www.w3.org/2000/svg">
<path d="M0 28C0 12.536 12.536 0 28 0C43.464 0 56 12.536 56 28C56 43.464 43.464 56 28 56C12.536 56 0 43.464 0 28Z" fill="#8F7F6E"/>
<path fill-rule="evenodd" clip-rule="evenodd" d="M43.6314 14.5478L41.6324 12.5488L23.8075 27.4126L20.3053 32.2795C19.6411 32.4869 18.7882 32.838 18.078 33.4728C17.1847 34.2711 16.582 35.4629 16.7378 37.1255C16.8099 37.8945 16.6514 38.4283 16.4045 38.8644C16.1376 39.3358 15.7515 39.7281 15.2636 40.2092L13.5273 41.9213H15.9657C16.6583 41.9213 17.6819 41.7819 18.6984 41.5421C19.7099 41.3035 20.8267 40.9394 21.6632 40.4375C23.7224 39.202 24.287 36.9226 24.3951 35.5193L28.7677 32.3727L43.6314 14.5478ZM22.3256 35.9673L20.6362 34.278C20.1947 34.4375 19.7561 34.6553 19.4108 34.964C18.9745 35.3539 18.6345 35.9298 18.7291 36.9388C18.8278 37.9915 18.6406 38.8536 18.2843 39.5848C19.1995 39.3658 20.0658 39.0636 20.6342 38.7225C21.6712 38.1004 22.1464 36.9583 22.3256 35.9673ZM25.2829 28.7864L37.9899 18.1904L27.3939 30.8973L23.143 33.9563L22.224 33.0373L25.2829 28.7864Z" fill="white"/>
</svg>
