<svg width="56" height="56" viewBox="0 0 56 56" fill="none" xmlns="http://www.w3.org/2000/svg">
<path d="M0 28C0 12.536 12.536 0 28 0C43.464 0 56 12.536 56 28C56 43.464 43.464 56 28 56C12.536 56 0 43.464 0 28Z" fill="#8F7F6E"/>
<g clip-path="url(#clip0_184_24)">
<path fill-rule="evenodd" clip-rule="evenodd" d="M32.125 18.625H16V33H32.125V18.625ZM14 16.625V35H34.125V16.625H14Z" fill="white"/>
<path fill-rule="evenodd" clip-rule="evenodd" d="M37.882 22.875H33.25V20.875H39.118L42.125 26.8889V35.125H33.25V33.125H40.125V27.3611L37.882 22.875Z" fill="white"/>
<circle cx="20" cy="35" r="2" fill="#8F7F6E"/>
<circle cx="36" cy="35" r="2" fill="#8F7F6E"/>
<path fill-rule="evenodd" clip-rule="evenodd" d="M20.125 36.5C20.9534 36.5 21.625 35.8284 21.625 35C21.625 34.1716 20.9534 33.5 20.125 33.5C19.2966 33.5 18.625 34.1716 18.625 35C18.625 35.8284 19.2966 36.5 20.125 36.5ZM20.125 38.5C22.058 38.5 23.625 36.933 23.625 35C23.625 33.067 22.058 31.5 20.125 31.5C18.192 31.5 16.625 33.067 16.625 35C16.625 36.933 18.192 38.5 20.125 38.5Z" fill="white"/>
<path fill-rule="evenodd" clip-rule="evenodd" d="M35.875 36.5C36.7034 36.5 37.375 35.8284 37.375 35C37.375 34.1716 36.7034 33.5 35.875 33.5C35.0466 33.5 34.375 34.1716 34.375 35C34.375 35.8284 35.0466 36.5 35.875 36.5ZM35.875 38.5C37.808 38.5 39.375 36.933 39.375 35C39.375 33.067 37.808 31.5 35.875 31.5C33.942 31.5 32.375 33.067 32.375 35C32.375 36.933 33.942 38.5 35.875 38.5Z" fill="white"/>
</g>
<defs>
<clipPath id="clip0_184_24">
<rect width="28" height="28" fill="white" transform="translate(14 14)"/>
</clipPath>
</defs>
</svg>
