<svg width="56" height="56" viewBox="0 0 56 56" fill="none" xmlns="http://www.w3.org/2000/svg">
<path d="M0 28C0 12.536 12.536 0 28 0C43.464 0 56 12.536 56 28C56 43.464 43.464 56 28 56C12.536 56 0 43.464 0 28Z" fill="#8F7F6E"/>
<path fill-rule="evenodd" clip-rule="evenodd" d="M40 28C40 34.6274 34.6274 40 28 40C21.3726 40 16 34.6274 16 28C16 21.3726 21.3726 16 28 16C34.6274 16 40 21.3726 40 28ZM42 28C42 35.732 35.732 42 28 42C20.268 42 14 35.732 14 28C14 20.268 20.268 14 28 14C35.732 14 42 20.268 42 28ZM26.1335 33.1475L35.2406 24.0404L33.8264 22.6262L26.1335 30.3191L22.174 26.3596L20.7598 27.7738L26.1335 33.1475Z" fill="white"/>
</svg>
