<svg width="40" height="40" viewBox="0 0 40 40" fill="none" xmlns="http://www.w3.org/2000/svg">
<path d="M20 11C17.555 11 17.2498 11.0112 16.2898 11.054C15.3313 11.099 14.6787 11.2498 14.105 11.4725C13.5132 11.702 13.0108 12.0102 12.5105 12.5105C12.0102 13.0108 11.7013 13.5125 11.4725 14.105C11.2498 14.6787 11.0983 15.3313 11.054 16.2898C11.009 17.2498 11 17.555 11 20C11 22.445 11.0112 22.7503 11.054 23.7103C11.099 24.668 11.2498 25.3213 11.4725 25.895C11.702 26.486 12.0102 26.9893 12.5105 27.4895C13.0108 27.989 13.5125 28.2987 14.105 28.5275C14.6795 28.7495 15.332 28.9018 16.2898 28.946C17.2498 28.991 17.555 29 20 29C22.445 29 22.7503 28.9888 23.7103 28.946C24.668 28.901 25.3213 28.7495 25.895 28.5275C26.486 28.298 26.9893 27.989 27.4895 27.4895C27.989 26.9893 28.2987 26.4883 28.5275 25.895C28.7495 25.3213 28.9018 24.668 28.946 23.7103C28.991 22.7503 29 22.445 29 20C29 17.555 28.9888 17.2498 28.946 16.2898C28.901 15.332 28.7495 14.678 28.5275 14.105C28.298 13.5132 27.989 13.0108 27.4895 12.5105C26.9893 12.0102 26.4883 11.7013 25.895 11.4725C25.3213 11.2498 24.668 11.0983 23.7103 11.054C22.7503 11.009 22.445 11 20 11ZM20 12.62C22.4023 12.62 22.6888 12.632 23.6375 12.6732C24.515 12.7145 24.9913 12.86 25.3077 12.9845C25.7292 13.1472 26.0278 13.3423 26.3442 13.6565C26.6585 13.9715 26.8535 14.2707 27.0163 14.6922C27.1392 15.0087 27.2862 15.485 27.326 16.3625C27.3687 17.312 27.3785 17.597 27.3785 20C27.3785 22.403 27.3673 22.6888 27.323 23.6375C27.2773 24.515 27.131 24.9913 27.0072 25.3077C26.8393 25.7292 26.648 26.0278 26.333 26.3442C26.0188 26.6585 25.715 26.8535 25.298 27.0163C24.983 27.1392 24.4993 27.2862 23.6217 27.326C22.6663 27.3687 22.385 27.3785 19.9775 27.3785C17.5693 27.3785 17.288 27.3673 16.3333 27.323C15.455 27.2773 14.9713 27.131 14.6562 27.0072C14.2295 26.8393 13.9362 26.648 13.622 26.333C13.3063 26.0188 13.1045 25.715 12.947 25.298C12.8232 24.983 12.6778 24.4993 12.632 23.6217C12.5983 22.6768 12.5863 22.385 12.5863 19.9887C12.5863 17.5917 12.5983 17.2993 12.632 16.343C12.6778 15.4655 12.8232 14.9825 12.947 14.6675C13.1045 14.24 13.3063 13.9475 13.622 13.6318C13.9362 13.3175 14.2295 13.115 14.6562 12.9583C14.9713 12.8338 15.4445 12.6875 16.322 12.6425C17.2783 12.6087 17.5595 12.5975 19.9662 12.5975L20 12.62ZM20 15.3785C17.4462 15.3785 15.3785 17.4485 15.3785 20C15.3785 22.5538 17.4485 24.6215 20 24.6215C22.5538 24.6215 24.6215 22.5515 24.6215 20C24.6215 17.4462 22.5515 15.3785 20 15.3785ZM20 23C18.3425 23 17 21.6575 17 20C17 18.3425 18.3425 17 20 17C21.6575 17 23 18.3425 23 20C23 21.6575 21.6575 23 20 23ZM25.8845 15.1962C25.8845 15.7925 25.4 16.2762 24.8045 16.2762C24.2083 16.2762 23.7245 15.7917 23.7245 15.1962C23.7245 14.6007 24.209 14.117 24.8045 14.117C25.3993 14.1163 25.8845 14.6007 25.8845 15.1962Z" fill="#242424"/>
<rect x="0.5" y="0.5" width="39" height="39" rx="19.5" stroke="#BEBEBE"/>
</svg>
