<svg width="147" height="63" viewBox="0 0 147 63" fill="none" xmlns="http://www.w3.org/2000/svg">
<path d="M41.201 2.13787L31.7048 21.392L41.201 40.6461V2.13787ZM40.854 41.7672L31.2542 22.3042L25.8268 33.3088V41.7672H40.854ZM25.424 32.3009L30.8042 21.392L21.0033 1.52068L15.6231 12.4284L25.424 32.3009ZM25.0206 33.3088L15.1725 13.3413L9.35224 25.1417V41.7672H25.0206V33.3088ZM8.54666 0.816013H0.805574V40.6461L8.54666 24.9498V0.816013ZM8.54666 26.7744L1.15189 41.7672H8.54666V26.7744ZM9.35224 23.3166L20.4503 0.816013H9.35224V23.3166ZM21.5563 0.816013L31.2542 20.4791L40.9521 0.816013H21.5563ZM42.0059 42.5832H0V-3.8147e-06H42.0059V42.5832ZM143.703 62.9446H147V62.435H144.252V60.3343H146.529V59.824H144.252V57.8818H147V57.3722H143.703V62.9446ZM136.793 60.6438H138.441C138.425 60.9735 138.378 61.2547 138.3 61.4881C138.222 61.7222 138.113 61.9128 137.974 62.0607C137.835 62.2098 137.666 62.3186 137.467 62.3872C137.269 62.4564 137.043 62.4904 136.793 62.4904C136.557 62.4904 136.337 62.4451 136.132 62.352C135.928 62.2589 135.751 62.1217 135.603 61.9418C135.453 61.7612 135.335 61.5366 135.25 61.2692C135.163 61.0012 135.119 60.6891 135.119 60.3343V59.9039C135.119 59.5698 135.161 59.2722 135.245 59.0124C135.329 58.7526 135.445 58.5349 135.594 58.3593C135.744 58.1851 135.921 58.0517 136.125 57.9617C136.329 57.8717 136.551 57.8264 136.793 57.8264C137.012 57.8264 137.207 57.8554 137.377 57.9139C137.547 57.9718 137.696 58.0529 137.825 58.1561C137.953 58.2606 138.057 58.3807 138.139 58.5191C138.22 58.6569 138.281 58.8054 138.324 58.9646H138.905C138.862 58.7412 138.787 58.5292 138.677 58.3285C138.567 58.1259 138.423 57.9504 138.245 57.8019C138.067 57.654 137.856 57.5351 137.612 57.4477C137.369 57.3609 137.095 57.3162 136.793 57.3162C136.467 57.3162 136.168 57.3753 135.893 57.4917C135.618 57.6088 135.381 57.7774 135.182 57.9976C134.983 58.2171 134.829 58.4877 134.719 58.8092C134.609 59.13 134.554 59.4956 134.554 59.9039V60.3343C134.554 60.764 134.609 61.1446 134.719 61.4768C134.829 61.8078 134.983 62.0865 135.182 62.3117C135.381 62.5376 135.616 62.7081 135.889 62.8251C136.161 62.9427 136.462 63 136.793 63C137.122 63 137.42 62.9459 137.687 62.837C137.954 62.7282 138.181 62.564 138.366 62.3438C138.552 62.1242 138.696 61.8455 138.798 61.5076C138.9 61.171 138.951 60.7747 138.951 60.3185V60.1354H136.793V60.6438ZM129.148 59.8643C129.365 59.6674 129.473 59.3868 129.473 59.02C129.473 58.6645 129.364 58.3858 129.144 58.1851C128.924 57.9831 128.567 57.8818 128.076 57.8818H126.898V60.1587H128.076C128.574 60.1587 128.93 60.0606 129.148 59.8643ZM128.94 60.557L130.196 62.9446H129.568L128.391 60.6608C128.348 60.6658 128.304 60.6683 128.256 60.6683C128.209 60.6683 128.163 60.6683 128.115 60.6683H126.898V62.9446H126.348V57.3722H128.115C128.764 57.3722 129.247 57.5207 129.563 57.8183C129.881 58.1152 130.039 58.516 130.039 59.02C130.039 59.4025 129.948 59.7265 129.764 59.992C129.581 60.2569 129.306 60.445 128.94 60.557ZM118.417 62.9446H121.714V62.435H118.966V60.3343H121.243V59.824H118.966V57.8818H121.714V57.3722H118.417V62.9446ZM112.841 62.9446H113.391V57.3722H112.841V62.9446ZM104.462 59.008C104.547 58.7513 104.663 58.5349 104.812 58.3593C104.962 58.1851 105.138 58.0517 105.342 57.9617C105.546 57.8717 105.769 57.8264 106.01 57.8264C106.219 57.8264 106.408 57.8554 106.575 57.9139C106.743 57.9718 106.889 58.0529 107.015 58.1561C107.141 58.2606 107.244 58.3807 107.325 58.5191C107.406 58.6569 107.467 58.8054 107.509 58.9646H108.091C108.048 58.7368 107.974 58.5223 107.867 58.3235C107.76 58.1247 107.617 57.9504 107.439 57.8019C107.261 57.654 107.053 57.5351 106.814 57.4477C106.576 57.3609 106.308 57.3162 106.01 57.3162C105.685 57.3162 105.385 57.3753 105.111 57.4917C104.836 57.6088 104.599 57.7774 104.4 57.9976C104.2 58.2171 104.046 58.4877 103.937 58.8092C103.827 59.13 103.772 59.4956 103.772 59.9039V60.3343C103.772 60.764 103.827 61.1446 103.937 61.4768C104.046 61.8078 104.2 62.0865 104.4 62.3117C104.599 62.5376 104.835 62.7081 105.106 62.8251C105.379 62.9427 105.68 63 106.01 63C106.308 63 106.576 62.9572 106.814 62.8691C107.053 62.7817 107.261 62.6603 107.439 62.5074C107.617 62.3532 107.76 62.172 107.867 61.9619C107.974 61.7518 108.048 61.5221 108.091 61.2736H107.509C107.431 61.6291 107.268 61.921 107.019 62.1487C106.77 62.3771 106.434 62.4904 106.01 62.4904C105.774 62.4904 105.554 62.4457 105.35 62.3564C105.146 62.2651 104.969 62.1311 104.82 61.9499C104.671 61.77 104.553 61.5435 104.467 61.2736C104.38 61.0024 104.337 60.6891 104.337 60.3343V59.9039C104.337 59.5642 104.378 59.2653 104.462 59.008ZM98.4719 62.2287H98.4557L95.676 57.3722H94.8592V62.9446H95.4091V58.0095H95.4246L98.2516 62.9446H99.0211V57.3722H98.4719V62.2287ZM89.5429 59.9039C89.5429 59.5698 89.5001 59.2735 89.4132 59.0168C89.3263 58.7588 89.2078 58.5412 89.0564 58.3637C88.9043 58.1857 88.7237 58.0517 88.5145 57.9617C88.3048 57.8717 88.077 57.8264 87.8306 57.8264C87.5799 57.8264 87.3496 57.8717 87.1405 57.9617C86.9301 58.0517 86.7501 58.1851 86.5987 58.3593C86.4466 58.5349 86.3281 58.7513 86.2449 59.008C86.1611 59.2653 86.1189 59.5642 86.1189 59.9039V60.3343C86.1189 60.6891 86.1624 61.0012 86.2486 61.2692C86.3349 61.5366 86.4547 61.7612 86.6061 61.9418C86.7582 62.1217 86.9388 62.2589 87.1479 62.352C87.3577 62.4451 87.5848 62.4904 87.8306 62.4904C88.0826 62.4904 88.3128 62.4457 88.5226 62.3564C88.7311 62.2651 88.9117 62.1311 89.0644 61.9499C89.2158 61.77 89.3332 61.5454 89.4176 61.2767C89.5013 61.0093 89.5429 60.6948 89.5429 60.3343V59.9039ZM89.9438 58.8016C90.0531 59.1225 90.1083 59.4899 90.1083 59.9039V60.3343C90.1083 60.764 90.0518 61.1446 89.9395 61.4768C89.8272 61.8078 89.6714 62.0865 89.4728 62.3117C89.2736 62.5376 89.034 62.7081 88.7541 62.8251C88.473 62.9427 88.1657 63 87.8306 63C87.4905 63 87.1814 62.9427 86.9046 62.8251C86.6272 62.7081 86.3876 62.5376 86.1859 62.3117C85.9849 62.0865 85.8291 61.8078 85.7186 61.4768C85.6088 61.1446 85.5535 60.764 85.5535 60.3343V59.9039C85.5535 59.4956 85.6094 59.13 85.723 58.8092C85.8347 58.4877 85.9911 58.2171 86.1903 57.9976C86.3889 57.7774 86.6284 57.6088 86.9083 57.4917C87.1883 57.3753 87.4961 57.3162 87.8306 57.3162C88.1657 57.3162 88.473 57.3741 88.7541 57.4873C89.034 57.6018 89.2748 57.7698 89.4765 57.9894C89.6776 58.2096 89.8334 58.4801 89.9438 58.8016ZM77.45 59.008C77.5338 58.7513 77.6504 58.5349 77.7994 58.3593C77.9483 58.1851 78.1252 58.0517 78.33 57.9617C78.5342 57.8717 78.7564 57.8264 78.9972 57.8264C79.2064 57.8264 79.395 57.8554 79.5626 57.9139C79.7302 57.9718 79.8766 58.0529 80.0026 58.1561C80.128 58.2606 80.231 58.3807 80.3123 58.5191C80.3936 58.6569 80.4551 58.8054 80.4973 58.9646H81.0782C81.036 58.7368 80.9615 58.5223 80.8541 58.3235C80.7468 58.1247 80.6046 57.9504 80.4265 57.8019C80.2484 57.654 80.0405 57.5351 79.8022 57.4477C79.5638 57.3609 79.2951 57.3162 78.9972 57.3162C78.672 57.3162 78.3729 57.3753 78.0979 57.4917C77.823 57.6088 77.5859 57.7774 77.3873 57.9976C77.1881 58.2171 77.0342 58.4877 76.9237 58.8092C76.8139 59.13 76.7586 59.4956 76.7586 59.9039V60.3343C76.7586 60.764 76.8139 61.1446 76.9237 61.4768C77.0342 61.8078 77.1881 62.0865 77.3873 62.3117C77.5859 62.5376 77.8217 62.7081 78.0942 62.8251C78.366 62.9427 78.667 63 78.9972 63C79.2951 63 79.5638 62.9572 79.8022 62.8691C80.0405 62.7817 80.2484 62.6603 80.4265 62.5074C80.6046 62.3532 80.7468 62.172 80.8541 61.9619C80.9615 61.7518 81.036 61.5221 81.0782 61.2736H80.4973C80.4184 61.6291 80.2546 61.921 80.0064 62.1487C79.7575 62.3771 79.4211 62.4904 78.9972 62.4904C78.762 62.4904 78.5417 62.4457 78.3369 62.3564C78.1333 62.2651 77.9564 62.1311 77.8075 61.9499C77.6579 61.77 77.54 61.5435 77.4543 61.2736C77.3681 61.0024 77.3246 60.6891 77.3246 60.3343V59.9039C77.3246 59.5642 77.3662 59.2653 77.45 59.008ZM62.8596 57.8818H64.6663V62.9446H65.2156V57.8818H67.0216V57.3722H62.8596V57.8818ZM55.3606 62.9446H55.9105V60.3343H58.1876V59.824H55.9105V57.8818H58.658V57.3722H55.3606V62.9446ZM49.7855 62.9446H50.3348V57.3722H49.7855V62.9446ZM42.7966 60.6438H44.445C44.4295 60.9735 44.3823 61.2547 44.3041 61.4881C44.2259 61.7222 44.1167 61.9128 43.9783 62.0607C43.8393 62.2098 43.6711 62.3186 43.4719 62.3872C43.272 62.4564 43.0474 62.4904 42.7966 62.4904C42.5608 62.4904 42.3405 62.4451 42.1363 62.352C41.9327 62.2589 41.7558 62.1217 41.6069 61.9418C41.4573 61.7612 41.3394 61.5366 41.2531 61.2692C41.1669 61.0012 41.1234 60.6891 41.1234 60.3343V59.9039C41.1234 59.5698 41.1656 59.2722 41.2494 59.0124C41.3326 58.7526 41.4499 58.5349 41.5988 58.3593C41.7478 58.1851 41.9246 58.0517 42.1288 57.9617C42.3336 57.8717 42.5552 57.8264 42.7966 57.8264C43.0163 57.8264 43.2112 57.8554 43.3813 57.9139C43.5513 57.9718 43.7003 58.0529 43.8293 58.1561C43.9572 58.2606 44.0621 58.3807 44.1434 58.5191C44.2241 58.6569 44.2855 58.8054 44.3277 58.9646H44.9086C44.8664 58.7412 44.7913 58.5292 44.6809 58.3285C44.571 58.1259 44.4276 57.9504 44.2495 57.8019C44.0714 57.654 43.8604 57.5351 43.6171 57.4477C43.3732 57.3609 43.1001 57.3162 42.7966 57.3162C42.4714 57.3162 42.1723 57.3753 41.8973 57.4917C41.6218 57.6088 41.3853 57.7774 41.1867 57.9976C40.9875 58.2171 40.8336 58.4877 40.7231 58.8092C40.6133 59.13 40.558 59.4956 40.558 59.9039V60.3343C40.558 60.764 40.6133 61.1446 40.7231 61.4768C40.8336 61.8078 40.9875 62.0865 41.1867 62.3117C41.3853 62.5376 41.6211 62.7081 41.8936 62.8251C42.1654 62.9427 42.4664 63 42.7966 63C43.1262 63 43.4247 62.9459 43.6916 62.837C43.9584 62.7282 44.185 62.564 44.3712 62.3438C44.5567 62.1242 44.7007 61.8455 44.8025 61.5076C44.9049 61.171 44.9558 60.7747 44.9558 60.3185V60.1354H42.7966V60.6438ZM29.6554 59.8643C29.8733 59.6674 29.9813 59.3868 29.9813 59.02C29.9813 58.6645 29.8714 58.3858 29.6511 58.1851C29.4314 57.9831 29.0752 57.8818 28.583 57.8818H27.4057V60.1587H28.583C29.0807 60.1587 29.4376 60.0606 29.6554 59.8643ZM29.4469 60.557L30.7037 62.9446H30.0756L28.8977 60.6608C28.8555 60.6658 28.8114 60.6683 28.7636 60.6683C28.7171 60.6683 28.6699 60.6683 28.6227 60.6683H27.4057V62.9446H26.8558V57.3722H28.6227C29.2719 57.3722 29.7541 57.5207 30.0719 57.8183C30.3884 58.1152 30.5467 58.516 30.5467 59.02C30.5467 59.4025 30.4548 59.7265 30.2717 59.992C30.0887 60.2569 29.8137 60.445 29.4469 60.557ZM21.398 60.7558C21.398 61.329 21.2633 61.7612 20.994 62.0531C20.724 62.345 20.3616 62.4904 19.9066 62.4904C19.4561 62.4904 19.0942 62.3438 18.823 62.05C18.5499 61.7543 18.4146 61.3233 18.4146 60.7558V57.3722H17.8648V60.7954C17.8648 61.1459 17.9132 61.4579 18.01 61.731C18.1074 62.004 18.244 62.2356 18.4215 62.4231C18.5996 62.6118 18.8143 62.7553 19.0657 62.8534C19.3177 62.9515 19.5976 63 19.9066 63C20.2095 63 20.4875 62.9503 20.7389 62.8496C20.9896 62.7483 21.2044 62.603 21.3825 62.4117C21.5606 62.2211 21.6996 61.9896 21.7989 61.719C21.8982 61.4479 21.9479 61.1402 21.9479 60.7954V57.3722H21.398V60.7558ZM12.5876 59.9039C12.5876 59.5698 12.5447 59.2735 12.4579 59.0168C12.371 58.7588 12.2524 58.5412 12.101 58.3637C11.9489 58.1857 11.7683 58.0517 11.5592 57.9617C11.3494 57.8717 11.1216 57.8264 10.8753 57.8264C10.6245 57.8264 10.3943 57.8717 10.1845 57.9617C9.97473 58.0517 9.79475 58.1851 9.64331 58.3593C9.49064 58.5349 9.37272 58.7513 9.28956 59.008C9.20577 59.2653 9.16357 59.5642 9.16357 59.9039V60.3343C9.16357 60.6891 9.20701 61.0012 9.29328 61.2692C9.37955 61.5366 9.49871 61.7612 9.65076 61.9418C9.80281 62.1217 9.98342 62.2589 10.1926 62.352C10.4017 62.4451 10.6295 62.4904 10.8753 62.4904C11.1266 62.4904 11.3575 62.4457 11.5666 62.3564C11.7758 62.2651 11.9564 62.1311 12.1084 61.9499C12.2605 61.77 12.3778 61.5454 12.4616 61.2767C12.546 61.0093 12.5876 60.6948 12.5876 60.3343V59.9039ZM12.9885 58.8016C13.0977 59.1225 13.153 59.4899 13.153 59.9039V60.3343C13.153 60.764 13.0965 61.1446 12.9841 61.4768C12.8712 61.8078 12.716 62.0865 12.5174 62.3117C12.3176 62.5376 12.0787 62.7081 11.7988 62.8251C11.5176 62.9427 11.2104 63 10.8753 63C10.5352 63 10.2261 62.9427 9.94929 62.8251C9.67187 62.7081 9.4323 62.5376 9.23059 62.3117C9.02951 62.0865 8.87374 61.8078 8.76327 61.4768C8.65342 61.1446 8.59818 60.764 8.59818 60.3343V59.9039C8.59818 59.4956 8.65403 59.13 8.76761 58.8092C8.87932 58.4877 9.0351 58.2171 9.23432 57.9976C9.43292 57.7774 9.67248 57.6088 9.95301 57.4917C10.2329 57.3753 10.5407 57.3162 10.8753 57.3162C11.2104 57.3162 11.5176 57.3741 11.7988 57.4873C12.0787 57.6018 12.3188 57.7698 12.5212 57.9894C12.7222 58.2096 12.878 58.4801 12.9885 58.8016ZM2.40307 60.3494L0.611938 57.3722H0L2.12007 60.9143V62.9446H2.66994V60.9143L4.63299 57.3722H4.03656L2.40307 60.3494ZM141.808 29.2388L138.599 4.1971H138.479L135.229 29.2388H141.808ZM143.52 42.5832L142.198 32.2726H134.836L133.498 42.5832H130.018L136.259 -3.8147e-06H140.759L147 42.5832H143.52ZM113.154 42.5832V28.409L119.995 -3.8147e-06H116.575L111.534 22.6906H111.414L106.433 -3.8147e-06H103.012L109.733 28.409V42.5832H113.154ZM89.3735 -3.8147e-06H85.9526V42.5832H89.3735V-3.8147e-06ZM63.5963 39.6627H73.1981V42.5832H60.1767V-3.8147e-06H63.5963V39.6627Z" fill="#211D1A"/>
</svg>
