<svg width="129" height="53" viewBox="0 0 129 53" fill="none" xmlns="http://www.w3.org/2000/svg">
<path d="M36.156 1.79853L27.8225 17.9964L36.156 34.1943V1.79853ZM35.8515 35.1375L27.4271 18.7639L22.6643 28.0217V35.1375H35.8515ZM22.3109 27.1738L27.0323 17.9964L18.4315 1.2793L13.71 10.4556L22.3109 27.1738ZM21.9569 28.0217L13.3146 11.2236L8.20707 21.151V35.1375H21.9569V28.0217ZM7.50013 0.686489H0.706932V34.1943L7.50013 20.9896V0.686489ZM7.50013 22.5245L1.01084 35.1375H7.50013V22.5245ZM8.20707 19.6155L17.9462 0.686489H8.20707V19.6155ZM18.9167 0.686489L27.4271 17.2284L35.9376 0.686489H18.9167ZM36.8624 35.824H0V0H36.8624V35.824ZM126.106 52.9534H129V52.5247H126.588V50.7574H128.587V50.3281H126.588V48.6942H129V48.2655H126.106V52.9534ZM120.042 51.0178H121.489C121.475 51.2952 121.434 51.5317 121.365 51.7281C121.297 51.925 121.201 52.0854 121.079 52.2098C120.957 52.3352 120.809 52.4268 120.634 52.4845C120.46 52.5427 120.262 52.5713 120.042 52.5713C119.835 52.5713 119.643 52.5332 119.463 52.4548C119.284 52.3765 119.129 52.2611 118.998 52.1097C118.867 51.9578 118.764 51.7689 118.688 51.5439C118.612 51.3184 118.574 51.0559 118.574 50.7574V50.3954C118.574 50.1143 118.611 49.8639 118.684 49.6453C118.758 49.4268 118.86 49.2436 118.991 49.096C119.122 48.9493 119.277 48.8371 119.456 48.7614C119.636 48.6857 119.831 48.6476 120.042 48.6476C120.235 48.6476 120.406 48.672 120.555 48.7212C120.705 48.7699 120.835 48.8382 120.948 48.925C121.061 49.0129 121.152 49.1139 121.224 49.2304C121.295 49.3463 121.349 49.4712 121.386 49.6051H121.896C121.859 49.4172 121.792 49.2389 121.696 49.07C121.6 48.8996 121.473 48.7519 121.317 48.627C121.161 48.5026 120.976 48.4026 120.762 48.329C120.548 48.256 120.308 48.2184 120.042 48.2184C119.757 48.2184 119.494 48.2681 119.253 48.3661C119.011 48.4645 118.804 48.6064 118.629 48.7916C118.454 48.9763 118.319 49.2039 118.223 49.4744C118.126 49.7443 118.078 50.0519 118.078 50.3954V50.7574C118.078 51.1189 118.126 51.4391 118.223 51.7186C118.319 51.997 118.454 52.2315 118.629 52.421C118.804 52.611 119.01 52.7544 119.249 52.8529C119.488 52.9518 119.753 53 120.042 53C120.332 53 120.593 52.9545 120.827 52.8629C121.061 52.7713 121.261 52.6332 121.424 52.448C121.586 52.2632 121.713 52.0288 121.802 51.7445C121.892 51.4614 121.937 51.1279 121.937 50.7442V50.5901H120.042V51.0178ZM113.334 50.362C113.524 50.1963 113.62 49.9603 113.62 49.6517C113.62 49.3527 113.523 49.1182 113.33 48.9493C113.137 48.7794 112.824 48.6942 112.393 48.6942H111.36V50.6097H112.393C112.83 50.6097 113.143 50.5271 113.334 50.362ZM113.151 50.9448L114.254 52.9534H113.702L112.669 51.0321C112.632 51.0363 112.593 51.0384 112.552 51.0384C112.51 51.0384 112.469 51.0384 112.427 51.0384H111.36V52.9534H110.877V48.2655H112.427C112.997 48.2655 113.421 48.3904 113.699 48.6408C113.977 48.8906 114.116 49.2277 114.116 49.6517C114.116 49.9735 114.036 50.2461 113.874 50.4695C113.714 50.6923 113.473 50.8505 113.151 50.9448ZM103.917 52.9534H106.811V52.5247H104.399V50.7574H106.397V50.3281H104.399V48.6942H106.811V48.2655H103.917V52.9534ZM99.024 52.9534H99.5065V48.2655H99.024V52.9534ZM91.6709 49.6417C91.745 49.4257 91.8468 49.2436 91.9781 49.096C92.1093 48.9493 92.264 48.8371 92.4432 48.7614C92.6224 48.6857 92.8179 48.6476 93.0292 48.6476C93.2128 48.6476 93.3783 48.672 93.5248 48.7212C93.6724 48.7699 93.8004 48.8382 93.911 48.925C94.0215 49.0129 94.1125 49.1139 94.1827 49.2304C94.2541 49.3463 94.308 49.4712 94.345 49.6051H94.8554C94.8178 49.4135 94.7524 49.233 94.6587 49.0658C94.5645 48.8985 94.4393 48.7519 94.283 48.627C94.1272 48.5026 93.9442 48.4026 93.7351 48.329C93.5259 48.256 93.2906 48.2184 93.0292 48.2184C92.7444 48.2184 92.4808 48.2681 92.24 48.3661C91.9988 48.4645 91.7907 48.6064 91.6164 48.7916C91.4411 48.9763 91.306 49.2039 91.2096 49.4744C91.1132 49.7443 91.0653 50.0519 91.0653 50.3954V50.7574C91.0653 51.1189 91.1132 51.4391 91.2096 51.7186C91.306 51.997 91.4411 52.2315 91.6164 52.421C91.7907 52.611 91.9977 52.7544 92.2362 52.8529C92.4753 52.9518 92.7395 53 93.0292 53C93.2906 53 93.5259 52.964 93.7351 52.8899C93.9442 52.8163 94.1272 52.7142 94.283 52.5856C94.4393 52.4559 94.5645 52.3035 94.6587 52.1267C94.7524 51.9499 94.8178 51.7567 94.8554 51.5476H94.345C94.2759 51.8467 94.1332 52.0923 93.9142 52.2839C93.6964 52.476 93.4012 52.5713 93.0292 52.5713C92.8223 52.5713 92.6295 52.5337 92.4497 52.4585C92.2711 52.3818 92.1159 52.2691 91.9852 52.1166C91.8539 51.9652 91.751 51.7747 91.6753 51.5476C91.599 51.3195 91.5609 51.0559 91.5609 50.7574V50.3954C91.5609 50.1095 91.5974 49.8581 91.6709 49.6417ZM86.4141 52.3511H86.3999L83.9605 48.2655H83.2438V52.9534H83.7263V48.8017H83.74L86.2208 52.9534H86.8961V48.2655H86.4141V52.3511ZM78.5785 50.3954C78.5785 50.1143 78.5409 49.865 78.4647 49.6491C78.3884 49.432 78.2844 49.2489 78.1515 49.0997C78.0181 48.9499 77.8596 48.8371 77.676 48.7614C77.4919 48.6857 77.2921 48.6476 77.0758 48.6476C76.8558 48.6476 76.6537 48.6857 76.4702 48.7614C76.2856 48.8371 76.1276 48.9493 75.9947 49.096C75.8613 49.2436 75.7573 49.4257 75.6843 49.6417C75.6108 49.8581 75.5737 50.1095 75.5737 50.3954V50.7574C75.5737 51.0559 75.6119 51.3184 75.6876 51.5439C75.7633 51.7689 75.8684 51.9578 76.0013 52.1097C76.1347 52.2611 76.2932 52.3765 76.4767 52.4548C76.6608 52.5332 76.8602 52.5713 77.0758 52.5713C77.297 52.5713 77.499 52.5337 77.6831 52.4585C77.8661 52.3818 78.0246 52.2691 78.1586 52.1166C78.2915 51.9652 78.3944 51.7763 78.4685 51.5503C78.542 51.3253 78.5785 51.0607 78.5785 50.7574V50.3954ZM78.9303 49.468C79.0262 49.738 79.0746 50.0471 79.0746 50.3954V50.7574C79.0746 51.1189 79.0251 51.4391 78.9265 51.7186C78.8279 51.997 78.6912 52.2315 78.5169 52.421C78.3421 52.611 78.1319 52.7544 77.8863 52.8529C77.6395 52.9518 77.3699 53 77.0758 53C76.7774 53 76.5061 52.9518 76.2632 52.8529C76.0198 52.7544 75.8096 52.611 75.6326 52.421C75.4561 52.2315 75.3194 51.997 75.2225 51.7186C75.1261 51.4391 75.0776 51.1189 75.0776 50.7574V50.3954C75.0776 50.0519 75.1266 49.7443 75.2263 49.4744C75.3243 49.2039 75.4616 48.9763 75.6364 48.7916C75.8107 48.6064 76.0209 48.4645 76.2665 48.3661C76.5121 48.2681 76.7823 48.2184 77.0758 48.2184C77.3699 48.2184 77.6395 48.2671 77.8863 48.3623C78.1319 48.4587 78.3432 48.6 78.5202 48.7847C78.6967 48.97 78.8334 49.1976 78.9303 49.468ZM67.9663 49.6417C68.0398 49.4257 68.1422 49.2436 68.2729 49.096C68.4037 48.9493 68.5589 48.8371 68.7386 48.7614C68.9178 48.6857 69.1128 48.6476 69.3241 48.6476C69.5076 48.6476 69.6732 48.672 69.8203 48.7212C69.9673 48.7699 70.0958 48.8382 70.2064 48.925C70.3164 49.0129 70.4068 49.1139 70.4782 49.2304C70.5495 49.3463 70.6034 49.4712 70.6405 49.6051H71.1502C71.1132 49.4135 71.0478 49.233 70.9536 49.0658C70.8594 48.8985 70.7347 48.7519 70.5784 48.627C70.4221 48.5026 70.2396 48.4026 70.0305 48.329C69.8213 48.256 69.5855 48.2184 69.3241 48.2184C69.0387 48.2184 68.7762 48.2681 68.5349 48.3661C68.2936 48.4645 68.0856 48.6064 67.9113 48.7916C67.7365 48.9763 67.6014 49.2039 67.5045 49.4744C67.4081 49.7443 67.3596 50.0519 67.3596 50.3954V50.7574C67.3596 51.1189 67.4081 51.4391 67.5045 51.7186C67.6014 51.997 67.7365 52.2315 67.9113 52.421C68.0856 52.611 68.2925 52.7544 68.5316 52.8529C68.7702 52.9518 69.0343 53 69.3241 53C69.5855 53 69.8213 52.964 70.0305 52.8899C70.2396 52.8163 70.4221 52.7142 70.5784 52.5856C70.7347 52.4559 70.8594 52.3035 70.9536 52.1267C71.0478 51.9499 71.1132 51.7567 71.1502 51.5476H70.6405C70.5713 51.8467 70.4275 52.0923 70.2097 52.2839C69.9913 52.476 69.6961 52.5713 69.3241 52.5713C69.1177 52.5713 68.9243 52.5337 68.7446 52.4585C68.566 52.3818 68.4107 52.2691 68.28 52.1166C68.1488 51.9652 68.0453 51.7747 67.9701 51.5476C67.8944 51.3195 67.8563 51.0559 67.8563 50.7574V50.3954C67.8563 50.1095 67.8928 49.8581 67.9663 49.6417ZM55.1626 48.6942H56.748V52.9534H57.23V48.6942H58.8149V48.2655H55.1626V48.6942ZM48.5818 52.9534H49.0643V50.7574H51.0626V50.3281H49.0643V48.6942H51.4754V48.2655H48.5818V52.9534ZM43.6893 52.9534H44.1713V48.2655H43.6893V52.9534ZM37.5562 51.0178H39.0028C38.9891 51.2952 38.9478 51.5317 38.8791 51.7281C38.8105 51.925 38.7147 52.0854 38.5932 52.2098C38.4712 52.3352 38.3236 52.4268 38.1488 52.4845C37.9734 52.5427 37.7762 52.5713 37.5562 52.5713C37.3493 52.5713 37.1559 52.5332 36.9767 52.4548C36.7981 52.3765 36.6429 52.2611 36.5122 52.1097C36.3809 51.9578 36.2774 51.7689 36.2017 51.5439C36.126 51.3184 36.0879 51.0559 36.0879 50.7574V50.3954C36.0879 50.1143 36.1249 49.8639 36.1985 49.6453C36.2714 49.4268 36.3744 49.2436 36.5051 49.096C36.6358 48.9493 36.791 48.8371 36.9702 48.7614C37.1499 48.6857 37.3444 48.6476 37.5562 48.6476C37.749 48.6476 37.92 48.672 38.0693 48.7212C38.2185 48.7699 38.3492 48.8382 38.4625 48.925C38.5747 49.0129 38.6667 49.1139 38.7381 49.2304C38.8089 49.3463 38.8628 49.4712 38.8998 49.6051H39.4096C39.3726 49.4172 39.3067 49.2389 39.2097 49.07C39.1133 48.8996 38.9875 48.7519 38.8312 48.627C38.6749 48.5026 38.4897 48.4026 38.2762 48.329C38.0622 48.256 37.8225 48.2184 37.5562 48.2184C37.2708 48.2184 37.0083 48.2681 36.767 48.3661C36.5252 48.4645 36.3177 48.6064 36.1434 48.7916C35.9686 48.9763 35.8335 49.2039 35.7366 49.4744C35.6402 49.7443 35.5917 50.0519 35.5917 50.3954V50.7574C35.5917 51.1189 35.6402 51.4391 35.7366 51.7186C35.8335 51.997 35.9686 52.2315 36.1434 52.421C36.3177 52.611 36.5247 52.7544 36.7638 52.8529C37.0023 52.9518 37.2665 53 37.5562 53C37.8454 53 38.1074 52.9545 38.3416 52.8629C38.5758 52.7713 38.7746 52.6332 38.938 52.448C39.1008 52.2632 39.2272 52.0288 39.3165 51.7445C39.4063 51.4614 39.451 51.1279 39.451 50.7442V50.5901H37.5562V51.0178ZM26.0242 50.362C26.2153 50.1963 26.3101 49.9603 26.3101 49.6517C26.3101 49.3527 26.2137 49.1182 26.0204 48.9493C25.8276 48.7794 25.5149 48.6942 25.083 48.6942H24.0499V50.6097H25.083C25.5198 50.6097 25.833 50.5271 26.0242 50.362ZM25.8412 50.9448L26.9441 52.9534H26.3929L25.3592 51.0321C25.3221 51.0363 25.2835 51.0384 25.2415 51.0384C25.2007 51.0384 25.1593 51.0384 25.1179 51.0384H24.0499V52.9534H23.5673V48.2655H25.1179C25.6876 48.2655 26.1108 48.3904 26.3896 48.6408C26.6674 48.8906 26.8063 49.2277 26.8063 49.6517C26.8063 49.9735 26.7257 50.2461 26.565 50.4695C26.4043 50.6923 26.1631 50.8505 25.8412 50.9448ZM18.7778 51.112C18.7778 51.5942 18.6597 51.9578 18.4233 52.2034C18.1864 52.449 17.8683 52.5713 17.4691 52.5713C17.0737 52.5713 16.7562 52.4479 16.5182 52.2008C16.2785 51.952 16.1598 51.5894 16.1598 51.112V48.2655H15.6772V51.1454C15.6772 51.4402 15.7197 51.7027 15.8047 51.9324C15.8902 52.1621 16.01 52.3569 16.1658 52.5146C16.3221 52.6734 16.5105 52.7941 16.7311 52.8767C16.9522 52.9592 17.1979 53 17.4691 53C17.7349 53 17.9789 52.9582 18.1994 52.8735C18.4195 52.7883 18.6079 52.666 18.7642 52.5051C18.9205 52.3447 19.0425 52.15 19.1297 51.9224C19.2168 51.6942 19.2604 51.4354 19.2604 51.1454V48.2655H18.7778V51.112ZM11.0462 50.3954C11.0462 50.1143 11.0087 49.865 10.9324 49.6491C10.8562 49.432 10.7521 49.2489 10.6192 49.0997C10.4858 48.9499 10.3273 48.8371 10.1438 48.7614C9.95969 48.6857 9.75981 48.6476 9.54359 48.6476C9.32356 48.6476 9.1215 48.6857 8.93742 48.7614C8.75333 48.8371 8.59539 48.9493 8.4625 49.096C8.32852 49.2436 8.22504 49.4257 8.15206 49.6417C8.07854 49.8581 8.0415 50.1095 8.0415 50.3954V50.7574C8.0415 51.0559 8.07962 51.3184 8.15533 51.5439C8.23103 51.7689 8.3356 51.9578 8.46903 52.1097C8.60247 52.2611 8.76096 52.3765 8.9445 52.4548C9.12804 52.5332 9.32792 52.5713 9.54359 52.5713C9.76417 52.5713 9.96677 52.5337 10.1503 52.4585C10.3339 52.3818 10.4923 52.2691 10.6258 52.1166C10.7592 51.9652 10.8622 51.7763 10.9357 51.5503C11.0097 51.3253 11.0462 51.0607 11.0462 50.7574V50.3954ZM11.3981 49.468C11.4939 49.738 11.5424 50.0471 11.5424 50.3954V50.7574C11.5424 51.1189 11.4928 51.4391 11.3943 51.7186C11.2951 51.997 11.159 52.2315 10.9847 52.421C10.8093 52.611 10.5996 52.7544 10.354 52.8529C10.1073 52.9518 9.8377 53 9.54359 53C9.24513 53 8.97391 52.9518 8.73101 52.8529C8.48756 52.7544 8.27732 52.611 8.10032 52.421C7.92386 52.2315 7.78716 51.997 7.69021 51.7186C7.59381 51.4391 7.54534 51.1189 7.54534 50.7574V50.3954C7.54534 50.0519 7.59436 49.7443 7.69402 49.4744C7.79206 49.2039 7.92876 48.9763 8.10359 48.7916C8.27787 48.6064 8.4881 48.4645 8.73427 48.3661C8.9799 48.2681 9.25004 48.2184 9.54359 48.2184C9.8377 48.2184 10.1073 48.2671 10.354 48.3623C10.5996 48.4587 10.8104 48.6 10.988 48.7847C11.1644 48.97 11.3011 49.1976 11.3981 49.468ZM2.10882 50.7701L0.537007 48.2655H0L1.86047 51.2454V52.9534H2.34301V51.2454L4.06568 48.2655H3.54229L2.10882 50.7701ZM124.444 24.5977L121.627 3.5309H121.522L118.671 24.5977H124.444ZM125.946 35.824L124.786 27.15H118.325L117.151 35.824H114.097L119.574 0H123.523L129 35.824H125.946ZM99.2985 35.824V23.8996L105.302 0H102.3L97.8764 19.0889H97.7713L93.4001 0H90.3986L96.2965 23.8996V35.824H99.2985ZM78.4298 0H75.4278V35.824H78.4298V0ZM55.809 33.367H64.235V35.824H52.8081V0H55.809V33.367Z" fill="white"/>
</svg>
