<svg width="40" height="40" viewBox="0 0 40 40" fill="none" xmlns="http://www.w3.org/2000/svg">
<path d="M27.2551 12.6208C26.9551 12.3664 26.4839 12.33 25.9967 12.5256H25.9959C25.4835 12.7312 11.4915 18.7328 10.9219 18.978C10.8183 19.014 9.91352 19.3516 10.0067 20.1036C10.0899 20.7816 10.8171 21.0624 10.9059 21.0948L14.4631 22.3128C14.6991 23.0984 15.5691 25.9968 15.7615 26.616C15.8815 27.002 16.0771 27.5092 16.4199 27.6136C16.7207 27.7296 17.0199 27.6236 17.2135 27.4716L19.3883 25.4544L22.8991 28.1924L22.9827 28.2424C23.2211 28.348 23.4495 28.4008 23.6675 28.4008C23.8359 28.4008 23.9975 28.3692 24.1519 28.306C24.6779 28.09 24.8883 27.5888 24.9103 27.532L27.5327 13.9012C27.6927 13.1732 27.4703 12.8028 27.2551 12.6208ZM17.6003 22.8L16.4003 26L15.2003 22L24.4003 15.2L17.6003 22.8Z" fill="#242424"/>
<rect x="0.5" y="0.5" width="39" height="39" rx="19.5" stroke="#BEBEBE"/>
</svg>
