<svg width="40" height="40" viewBox="0 0 40 40" fill="none" xmlns="http://www.w3.org/2000/svg">
<path d="M20 10.7998C14.9272 10.7998 10.8 14.927 10.8 19.9998C10.8 21.5838 11.2092 23.1414 11.9852 24.5158L10.8148 28.6918C10.7764 28.829 10.8136 28.9762 10.9128 29.0782C10.9892 29.157 11.0932 29.1998 11.2 29.1998C11.232 29.1998 11.2644 29.1958 11.296 29.1882L15.6544 28.1086C16.9852 28.823 18.484 29.1998 20 29.1998C25.0728 29.1998 29.2 25.0726 29.2 19.9998C29.2 14.927 25.0728 10.7998 20 10.7998ZM24.628 23.2462C24.4312 23.791 23.4872 24.2882 23.0336 24.355C22.6264 24.4146 22.1112 24.4402 21.5456 24.2626C21.2028 24.1546 20.7628 24.0114 20.1992 23.771C17.83 22.7606 16.2828 20.405 16.1644 20.2494C16.0464 20.0938 15.2 18.985 15.2 17.8374C15.2 16.6898 15.81 16.1254 16.0268 15.8918C16.2436 15.6582 16.4992 15.5998 16.6568 15.5998C16.8144 15.5998 16.9716 15.6018 17.1096 15.6082C17.2548 15.6154 17.4496 15.5534 17.6412 16.0086C17.838 16.4758 18.3104 17.6234 18.3688 17.7406C18.428 17.8574 18.4672 17.9938 18.3888 18.1494C18.3104 18.305 18.2712 18.4022 18.1528 18.5386C18.0344 18.675 17.9048 18.8426 17.7984 18.9474C17.68 19.0638 17.5572 19.1898 17.6948 19.4234C17.8324 19.657 18.3064 20.4206 19.0088 21.039C19.9108 21.8334 20.672 22.0798 20.908 22.1966C21.144 22.3134 21.282 22.2938 21.4196 22.1382C21.5572 21.9822 22.01 21.457 22.1672 21.2238C22.3244 20.9906 22.482 21.029 22.6988 21.107C22.9156 21.1846 24.0768 21.7486 24.3128 21.8654C24.5488 21.9822 24.7064 22.0406 24.7656 22.1378C24.8248 22.2346 24.8248 22.7018 24.628 23.2462Z" fill="#242424"/>
<rect x="0.5" y="0.5" width="39" height="39" rx="19.5" stroke="#BEBEBE"/>
</svg>
