<svg width="40" height="40" viewBox="0 0 40 40" fill="none" xmlns="http://www.w3.org/2000/svg">
<path fill-rule="evenodd" clip-rule="evenodd" d="M27 39C33.6274 39 39 33.6274 39 27C39 20.3726 33.6274 15 27 15C20.3726 15 15 20.3726 15 27C15 33.6274 20.3726 39 27 39ZM22.0909 24.8182C22.9946 24.8182 23.7273 24.0856 23.7273 23.1818C23.7273 22.2781 22.9946 21.5455 22.0909 21.5455C21.1872 21.5455 20.4545 22.2781 20.4545 23.1818C20.4545 24.0856 21.1872 24.8182 22.0909 24.8182ZM33.5455 23.1818C33.5455 24.0856 32.8128 24.8182 31.9091 24.8182C31.0054 24.8182 30.2727 24.0856 30.2727 23.1818C30.2727 22.2781 31.0054 21.5455 31.9091 21.5455C32.8128 21.5455 33.5455 22.2781 33.5455 23.1818ZM23.6065 32.6971C24.0189 31.0476 25.4533 30.1818 27 30.1818C28.5467 30.1818 29.9811 31.0476 30.3935 32.6971L32.3338 32.212C31.6552 29.4978 29.2715 28.1818 27 28.1818C24.7285 28.1818 22.3448 29.4978 21.6662 32.212L23.6065 32.6971Z" fill="#8F7F6E"/>
<path opacity="0.5" fill-rule="evenodd" clip-rule="evenodd" d="M27.6506 12.0963C27.1092 12.0327 26.5584 12 26 12C18.268 12 12 18.268 12 26C12 26.5584 12.0327 27.1092 12.0963 27.6506C11.8945 27.4421 11.7007 27.2254 11.5152 27.0006C10.3346 25.5697 9.53504 23.8634 9.19091 22.0405C8.84679 20.2176 8.96929 18.3372 9.54701 16.5744C10.1247 14.8115 11.1389 13.2234 12.4952 11.9577C13.8516 10.692 15.5059 9.78996 17.3045 9.33537C19.1031 8.88078 20.9874 8.88845 22.7822 9.35766C24.577 9.82686 26.224 10.7424 27.5699 12.019C27.597 12.0446 27.6238 12.0704 27.6506 12.0963Z" fill="#8F7F6E"/>
<path opacity="0.25" fill-rule="evenodd" clip-rule="evenodd" d="M21.6506 5.09628C21.1092 5.0327 20.5584 5 20 5C12.268 5 6 11.268 6 19C6 19.5584 6.0327 20.1092 6.09628 20.6506C5.89451 20.4421 5.70065 20.2254 5.51525 20.0006C4.33461 18.5697 3.53504 16.8634 3.19091 15.0405C2.84679 13.2176 2.96929 11.3372 3.54701 9.57435C4.12474 7.81148 5.13893 6.22336 6.49524 4.9577C7.85155 3.69204 9.50593 2.78996 11.3045 2.33537C13.1031 1.88078 14.9874 1.88845 16.7822 2.35766C18.577 2.82686 20.224 3.74237 21.5699 5.01902C21.597 5.04464 21.6238 5.0704 21.6506 5.09628Z" fill="#8F7F6E"/>
</svg>
