<svg width="40" height="40" viewBox="0 0 40 40" fill="none" xmlns="http://www.w3.org/2000/svg">
<path fill-rule="evenodd" clip-rule="evenodd" d="M27 39C33.6274 39 39 33.6274 39 27C39 20.3726 33.6274 15 27 15C20.3726 15 15 20.3726 15 27C15 33.6274 20.3726 39 27 39ZM26 18.2727V27V27.3333L26.2 27.6L29.4727 31.9636L31.0727 30.7636L28 26.6667V18.2727H26Z" fill="#8F7F6E"/>
<path opacity="0.5" fill-rule="evenodd" clip-rule="evenodd" d="M27.6506 12.0963C27.1092 12.0327 26.5584 12 26 12C18.268 12 12 18.268 12 26C12 26.5584 12.0327 27.1092 12.0963 27.6506C11.8945 27.4421 11.7007 27.2254 11.5152 27.0006C10.3346 25.5697 9.53504 23.8634 9.19091 22.0405C8.84679 20.2176 8.96929 18.3372 9.54701 16.5744C10.1247 14.8115 11.1389 13.2234 12.4952 11.9577C13.8516 10.692 15.5059 9.78996 17.3045 9.33537C19.1031 8.88078 20.9874 8.88845 22.7822 9.35766C24.577 9.82686 26.224 10.7424 27.5699 12.019C27.597 12.0446 27.6238 12.0704 27.6506 12.0963Z" fill="#8F7F6E"/>
<path opacity="0.25" fill-rule="evenodd" clip-rule="evenodd" d="M21.6506 5.09628C21.1092 5.0327 20.5584 5 20 5C12.268 5 6 11.268 6 19C6 19.5584 6.0327 20.1092 6.09628 20.6506C5.89451 20.4421 5.70065 20.2254 5.51525 20.0006C4.33461 18.5697 3.53504 16.8634 3.19091 15.0405C2.84679 13.2176 2.96929 11.3372 3.54701 9.57435C4.12474 7.81148 5.13893 6.22336 6.49524 4.9577C7.85155 3.69204 9.50593 2.78996 11.3045 2.33537C13.1031 1.88078 14.9874 1.88845 16.7822 2.35766C18.577 2.82686 20.224 3.74237 21.5699 5.01902C21.597 5.04464 21.6238 5.0704 21.6506 5.09628Z" fill="#8F7F6E"/>
</svg>
