<svg width="40" height="40" viewBox="0 0 40 40" fill="none" xmlns="http://www.w3.org/2000/svg">
<circle cx="26" cy="20" r="4" fill="#8F7F6E" stroke="#8F7F6E" stroke-width="2"/>
<path d="M16 36V37H36V36C36 31.5817 32.4183 28 28 28H24C19.5817 28 16 31.5817 16 36Z" fill="#8F7F6E" stroke="#8F7F6E" stroke-width="2"/>
<path fill-rule="evenodd" clip-rule="evenodd" d="M18.266 17.9465C18.999 15.1785 21.1785 12.999 23.9465 12.266C23.5915 9.85255 21.5121 8 19 8C16.2386 8 14 10.2386 14 13C14 15.5121 15.8526 17.5915 18.266 17.9465ZM19.402 24.5253C18.5176 23.2383 18 21.6796 18 20H17C12.0294 20 8 24.0294 8 29V31H12.7301C14.2107 28.1991 16.5521 25.9234 19.402 24.5253Z" fill="#8F7F6E" fill-opacity="0.5"/>
<path fill-rule="evenodd" clip-rule="evenodd" d="M11.266 10.9465C11.999 8.17854 14.1785 5.99902 16.9465 5.266C16.5915 2.85255 14.5121 1 12 1C9.23858 1 7 3.23858 7 6C7 8.51207 8.85255 10.5915 11.266 10.9465ZM12.402 17.5253C11.5176 16.2383 11 14.6796 11 13H10C5.02944 13 1 17.0294 1 22V24H5.73009C7.21066 21.1991 9.55205 18.9234 12.402 17.5253Z" fill="#8F7F6E" fill-opacity="0.25"/>
</svg>
